<?xml version="1.0" encoding="UTF-8" standalone="no"?>
<!-- Created with Inkscape (http://www.inkscape.org/) -->

<svg
   xmlns:dc="http://purl.org/dc/elements/1.1/"
   xmlns:cc="http://creativecommons.org/ns#"
   xmlns:rdf="http://www.w3.org/1999/02/22-rdf-syntax-ns#"
   xmlns:svg="http://www.w3.org/2000/svg"
   xmlns="http://www.w3.org/2000/svg"
   xmlns:sodipodi="http://sodipodi.sourceforge.net/DTD/sodipodi-0.dtd"
   xmlns:inkscape="http://www.inkscape.org/namespaces/inkscape"
   width="1800"
   height="720"
   id="svg2"
   version="1.1"
   inkscape:version="0.48.4 r9939"
   sodipodi:docname="logo12.svg"
   inkscape:export-filename="/home/scott/Documents/Vancouver Documents/logo12.png"
   inkscape:export-xdpi="90"
   inkscape:export-ydpi="90">
  <defs
     id="defs4" />
  <sodipodi:namedview
     id="base"
     pagecolor="#ffffff"
     bordercolor="#666666"
     borderopacity="1.0"
     inkscape:pageopacity="0.0"
     inkscape:pageshadow="2"
     inkscape:zoom="1.979899"
     inkscape:cx="711.86435"
     inkscape:cy="415.18185"
     inkscape:document-units="px"
     inkscape:current-layer="layer1"
     showgrid="false"
     inkscape:window-width="1526"
     inkscape:window-height="685"
     inkscape:window-x="81"
     inkscape:window-y="294"
     inkscape:window-maximized="0"
     units="in" />
  <metadata
     id="metadata7">
    <rdf:RDF>
      <cc:Work
         rdf:about="">
        <dc:format>image/svg+xml</dc:format>
        <dc:type
           rdf:resource="http://purl.org/dc/dcmitype/StillImage" />
        <dc:title></dc:title>
      </cc:Work>
    </rdf:RDF>
  </metadata>
  <g
     inkscape:label="Layer 1"
     inkscape:groupmode="layer"
     id="layer1"
     transform="translate(0,-332.35975)">
    <text
       xml:space="preserve"
       style="font-size:277.61349487px;font-style:normal;font-weight:normal;line-height:125%;letter-spacing:0px;word-spacing:0px;fill:#006940;fill-opacity:1;stroke:none;font-family:Sans"
       x="578.24048"
       y="617.33221"
       id="text3778"
       sodipodi:linespacing="125%"
       transform="scale(0.98741043,1.0127501)"><tspan
         sodipodi:role="line"
         id="tspan3780"
         x="578.24048"
         y="617.33221"
         style="font-style:normal;font-variant:normal;font-weight:bold;font-stretch:normal;letter-spacing:-5.71076727px;fill:#006940;fill-opacity:1;font-family:Franklin Gothic Medium Cond;-inkscape-font-specification:Franklin Gothic Medium Cond Bold">vancouver</tspan></text>
    <flowRoot
       xml:space="preserve"
       id="flowRoot2995"
       style="font-size:40px;font-style:normal;font-weight:normal;line-height:125%;letter-spacing:0px;word-spacing:0px;fill:#003777;fill-opacity:1;stroke:none;font-family:Sans"
       transform="matrix(4.9278001,0,0,2.3115789,-3107.6179,69.858296)"><flowRegion
         id="flowRegion2997"><rect
           id="rect2999"
           width="232.85715"
           height="52.857121"
           x="751.42859"
           y="232.85715"
           style="fill:#003777;fill-opacity:1" /></flowRegion><flowPara
         id="flowPara3001"
         style="font-style:normal;font-variant:normal;font-weight:bold;font-stretch:normal;letter-spacing:-0.04288302px;fill:#003777;fill-opacity:1;font-family:Franklin Gothic Medium Cond;-inkscape-font-specification:Franklin Gothic Medium Cond Bold">DOCUMENTS</flowPara></flowRoot>    <path
       style="font-size:medium;font-style:normal;font-variant:normal;font-weight:normal;font-stretch:normal;text-indent:0;text-align:start;text-decoration:none;line-height:normal;letter-spacing:normal;word-spacing:normal;text-transform:none;direction:ltr;block-progression:tb;writing-mode:lr-tb;text-anchor:start;baseline-shift:baseline;color:#000000;fill:#003777;fill-opacity:1;stroke:none;stroke-width:15.29699421;marker:none;visibility:visible;display:inline;overflow:visible;enable-background:accumulate;font-family:Sans;-inkscape-font-specification:Sans"
       d="M 448.71875 300.59375 C 423.06108 300.70754 400.73874 308.77154 391.9375 312.40625 L 391.9375 328.71875 A 7.6544162 7.6544162 0 0 0 394.28125 328.0625 C 394.28125 328.0625 448.59395 304.00071 487.8125 324.6875 C 514.03699 338.52025 540.0911 336.62033 559.0625 331.34375 C 568.5482 328.70546 576.34604 325.23156 581.84375 322.40625 C 582.60229 322.01644 583.20513 321.67561 583.875 321.3125 L 583.875 305.46875 C 583.14681 304.79996 582.60301 304.32022 582.5625 304.34375 C 582.36548 304.45818 582.32281 304.5048 582.28125 304.53125 C 582.19815 304.58415 582.17978 304.57825 582.15625 304.59375 C 582.10915 304.62475 582.07045 304.6616 582.03125 304.6875 C 581.95285 304.7394 581.83717 304.8093 581.6875 304.90625 C 581.38816 305.10015 580.92919 305.37522 580.3125 305.75 C 579.07913 306.49956 577.22953 307.58643 574.84375 308.8125 C 570.07219 311.26464 563.17409 314.30288 554.9375 316.59375 C 538.46431 321.1755 516.98505 322.78577 494.9375 311.15625 C 479.85181 303.19893 463.75155 300.52708 448.71875 300.59375 z "
       transform="translate(0,332.35975)"
       id="path3767-2" />
    <path
       style="fill:none;stroke:none;stroke-width:1;stroke-linecap:butt;stroke-linejoin:miter;stroke-miterlimit:4;stroke-opacity:0.97716895999999998;stroke-dasharray:none"
       d="m 1668.6348,701.79621 c -1311.91376,0 -1311.91376,0 -1311.91376,0"
       id="path3836"
       inkscape:connector-curvature="0" />
    <path
       style="fill:#006940;fill-opacity:1;stroke:#006940;stroke-width:13.31043434;stroke-linecap:round;stroke-linejoin:miter;stroke-miterlimit:4;stroke-opacity:1;stroke-dasharray:none"
       d="m 462.47491,489.73992 c -23.65814,0.99522 -49.59082,86.37597 -61.46568,125.94396 6.61666,-1.96095 14.49908,-4.52874 21.20431,-5.81216 9.35098,-1.78983 18.19668,-2.75817 20.72884,-3.00886 22.16771,-1.0688 39.62347,4.33024 66.37954,15.07331 20.82658,8.36228 33.76665,3.78248 39.6269,1.91524 7.01097,-1.30675 16.30175,-10.01063 7.6074,-4.23819 -8.96667,5.95324 14.12986,-4.83315 18.99951,-7.68406 -10.4615,-18.90509 -19.23399,-65.5355 -26.6897,-77.21174 -9.28035,-14.53379 -13.40743,-12.96903 -25.78121,-1.03056 -12.37383,11.93846 -13.40628,19.21076 -46.91864,-34.25277 -4.18905,-6.68294 -8.59365,-9.64251 -13.13081,-9.69417 -0.19146,-0.002 -0.36861,-0.008 -0.56046,0 z"
       id="path3767-9-3"
       inkscape:connector-curvature="0"
       inkscape:export-filename="/home/scott/Documents/Vancouver Documents/logo4.png"
       inkscape:export-xdpi="90"
       inkscape:export-ydpi="90"
       sodipodi:nodetypes="ccscscscssscc" />
    <path
       style="fill:none;stroke:none;stroke-width:1.10141884999999995px;stroke-linecap:butt;stroke-linejoin:miter;stroke-opacity:1"
       d="m 391.93918,450.4154 0,297.78188"
       id="path3999"
       inkscape:connector-curvature="0" />
    <path
       style="fill:none;stroke:none;stroke-width:1;stroke-linecap:butt;stroke-linejoin:miter;stroke-miterlimit:4;stroke-opacity:0.97716895999999998;stroke-dasharray:none"
       d="m 1678.2313,482.63372 c -1311.91383,0 -1311.91383,0 -1311.91383,0"
       id="path3836-6"
       inkscape:connector-curvature="0" />
    <path
       style="fill:none;stroke:none;stroke-width:1.10141884999999995px;stroke-linecap:butt;stroke-linejoin:miter;stroke-opacity:1"
       d="m 1650.5893,442.83926 0,297.78188"
       id="path3999-3"
       inkscape:connector-curvature="0" />
    <path
       style="fill:none;stroke:none;stroke-width:1.10141884999999995px;stroke-linecap:butt;stroke-linejoin:miter;stroke-opacity:1"
       d="m 595.99,450.92047 0,297.78188"
       id="path3999-5"
       inkscape:connector-curvature="0" />
    <path
       inkscape:connector-curvature="0"
       style="font-size:medium;font-style:normal;font-variant:normal;font-weight:normal;font-stretch:normal;text-indent:0;text-align:start;text-decoration:none;line-height:normal;letter-spacing:normal;word-spacing:normal;text-transform:none;direction:ltr;block-progression:tb;writing-mode:lr-tb;text-anchor:start;baseline-shift:baseline;color:#000000;fill:#003777;fill-opacity:1;stroke:none;stroke-width:15.29699421;marker:none;visibility:visible;display:inline;overflow:visible;enable-background:accumulate;font-family:Sans;-inkscape-font-specification:Sans"
       d="m 448.71618,666.30369 c -25.65767,0.11379 -47.98001,8.17779 -56.78125,11.8125 l 0,16.3125 a 7.6544162,7.6544162 0 0 0 2.34375,-0.65625 c 0,0 54.3127,-24.06179 93.53125,-3.375 26.22449,13.83275 52.2786,11.93283 71.25,6.65625 9.4857,-2.63829 17.28354,-6.11219 22.78125,-8.9375 0.75854,-0.38981 1.36138,-0.73064 2.03125,-1.09375 l 0,-15.84375 c -0.72819,-0.66879 -1.27199,-1.14853 -1.3125,-1.125 -0.19702,0.11443 -0.23969,0.16105 -0.28125,0.1875 -0.0831,0.0529 -0.10147,0.047 -0.125,0.0625 -0.0471,0.031 -0.0858,0.0679 -0.125,0.0937 -0.0784,0.0519 -0.19408,0.1218 -0.34375,0.21875 -0.29934,0.1939 -0.75831,0.46897 -1.375,0.84375 -1.23337,0.74956 -3.08297,1.83643 -5.46875,3.0625 -4.77156,2.45214 -11.66966,5.49038 -19.90625,7.78125 -16.47319,4.58175 -37.95245,6.19202 -60,-5.4375 -15.08569,-7.95732 -31.18595,-10.62917 -46.21875,-10.5625 z"
       id="path3767-2-3" />
  </g>
</svg>
